<svg width="21" height="20" viewBox="0 0 21 20" fill="none" xmlns="http://www.w3.org/2000/svg">
<path d="M13.3975 10.7417L14.66 17.8467C14.6741 17.9303 14.6624 18.0163 14.6263 18.0931C14.5903 18.1699 14.5316 18.2339 14.4583 18.2765C14.3849 18.3191 14.3002 18.3382 14.2156 18.3314C14.1311 18.3246 14.0506 18.2921 13.985 18.2383L11.0016 15.9992C10.8576 15.8916 10.6827 15.8334 10.5029 15.8334C10.3231 15.8334 10.1482 15.8916 10.0041 15.9992L7.01581 18.2375C6.95024 18.2912 6.86986 18.3236 6.78539 18.3305C6.70092 18.3373 6.61637 18.3182 6.54303 18.2757C6.46969 18.2333 6.41104 18.1694 6.37491 18.0928C6.33878 18.0161 6.32688 17.9303 6.34081 17.8467L7.60248 10.7417" stroke="#10B981" stroke-width="1.66667" stroke-linecap="round" stroke-linejoin="round"/>
<path d="M10.5 11.6667C13.2614 11.6667 15.5 9.42808 15.5 6.66666C15.5 3.90523 13.2614 1.66666 10.5 1.66666C7.73858 1.66666 5.5 3.90523 5.5 6.66666C5.5 9.42808 7.73858 11.6667 10.5 11.6667Z" stroke="#10B981" stroke-width="1.66667" stroke-linecap="round" stroke-linejoin="round"/>
</svg>
