<svg width="21" height="20" viewBox="0 0 21 20" fill="none" xmlns="http://www.w3.org/2000/svg">
<path d="M16.3333 9.16666H4.66667C3.74619 9.16666 3 9.91285 3 10.8333V16.6667C3 17.5871 3.74619 18.3333 4.66667 18.3333H16.3333C17.2538 18.3333 18 17.5871 18 16.6667V10.8333C18 9.91285 17.2538 9.16666 16.3333 9.16666Z" stroke="#10B981" stroke-width="1.66667" stroke-linecap="round" stroke-linejoin="round"/>
<path d="M6.33331 9.16666V5.83332C6.33331 4.72825 6.7723 3.66845 7.5537 2.88704C8.3351 2.10564 9.39491 1.66666 10.5 1.66666C11.605 1.66666 12.6649 2.10564 13.4463 2.88704C14.2277 3.66845 14.6666 4.72825 14.6666 5.83332V9.16666" stroke="#10B981" stroke-width="1.66667" stroke-linecap="round" stroke-linejoin="round"/>
</svg>
