<svg width="21" height="21" viewBox="0 0 21 21" fill="none" xmlns="http://www.w3.org/2000/svg">
<path d="M3.83337 12.1667C3.67567 12.1672 3.52106 12.123 3.3875 12.0391C3.25393 11.9553 3.1469 11.8353 3.07883 11.693C3.01076 11.5508 2.98445 11.3921 3.00295 11.2355C3.02146 11.0789 3.08402 10.9308 3.18337 10.8083L11.4334 2.30833C11.4953 2.23689 11.5796 2.18862 11.6725 2.17144C11.7655 2.15425 11.8615 2.16917 11.9448 2.21375C12.0281 2.25832 12.0939 2.32991 12.1311 2.41675C12.1684 2.50359 12.1751 2.60053 12.15 2.69166L10.55 7.70833C10.5029 7.8346 10.487 7.97043 10.5039 8.10417C10.5207 8.2379 10.5698 8.36556 10.6468 8.47618C10.7238 8.5868 10.8265 8.67709 10.9461 8.73929C11.0657 8.8015 11.1986 8.83377 11.3334 8.83333H17.1667C17.3244 8.83279 17.479 8.87701 17.6126 8.96084C17.7461 9.04468 17.8532 9.1647 17.9212 9.30695C17.9893 9.44919 18.0156 9.60784 17.9971 9.76444C17.9786 9.92105 17.9161 10.0692 17.8167 10.1917L9.5667 18.6917C9.50482 18.7631 9.42048 18.8114 9.32755 18.8285C9.23461 18.8457 9.1386 18.8308 9.05526 18.7862C8.97192 18.7417 8.90621 18.6701 8.86892 18.5832C8.83163 18.4964 8.82497 18.3995 8.85003 18.3083L10.45 13.2917C10.4972 13.1654 10.5131 13.0296 10.4962 12.8958C10.4794 12.7621 10.4303 12.6344 10.3533 12.5238C10.2763 12.4132 10.1736 12.3229 10.054 12.2607C9.93439 12.1985 9.8015 12.1662 9.6667 12.1667H3.83337Z" stroke="white" stroke-width="1.66667" stroke-linecap="round" stroke-linejoin="round"/>
</svg>
